<?xml version="1.0" encoding="UTF-8" standalone="no"?>
<svg
   xml:space="preserve"
   height="22.231106"
   width="8.7087193"
   version="1.1"
   x="0px"
   y="0px"
   enable-background="new 0 0 124.189 132.243"
   viewBox="0 0 8.708649 22.231609"
   id="svg16"
   sodipodi:docname="person.svg"
   xmlns:inkscape="http://www.inkscape.org/namespaces/inkscape"
   xmlns:sodipodi="http://sodipodi.sourceforge.net/DTD/sodipodi-0.dtd"
   xmlns="http://www.w3.org/2000/svg"
   xmlns:svg="http://www.w3.org/2000/svg"><defs
     id="defs20" /><sodipodi:namedview
     id="namedview18"
     pagecolor="#ffffff"
     bordercolor="#000000"
     borderopacity="0.25"
     inkscape:showpageshadow="2"
     inkscape:pageopacity="0.0"
     inkscape:pagecheckerboard="0"
     inkscape:deskcolor="#d1d1d1"
     showgrid="false" /><path
     stroke-width="0.241493"
     d="m 4.3528891,-7.2436524e-7 c -1.00616,0 -1.82067,0.81510500436524 -1.82067,1.82106602436524 2e-4,1.005188 0.8147,1.82066 1.82067,1.82066 1.00499,0 1.82027,-0.815472 1.82027,-1.82066 0,-1.00615502 -0.81528,-1.82106602436524 -1.82027,-1.82106602436524 z M 2.3417391,4.1088493 c -1.28899,0 -2.34364096,1.0446 -2.34364096,2.331852 v 5.6470617 c 0,0.439516 0.346011,0.796539 0.786301,0.796539 0.44047996,0 0.79730996,-0.356637 0.79730996,-0.796539 V 6.9961343 h 0.40609 c 0,0 0.009,13.2938737 0.009,14.1671107 0,0.589242 0.47873,1.068363 1.06875,1.068363 0.58963,0 1.06739,-0.479121 1.06739,-1.068363 V 12.93685 h 0.43855 v 8.226395 c 0,0.589242 0.47777,1.068363 1.06856,1.068363 0.59002,0 1.07203,-0.479121 1.07203,-1.068363 V 6.9961343 h 0.41093 v 5.0916287 c 0,0.439516 0.35741,0.796539 0.79712,0.796539 0.44048,0 0.78688,-0.356637 0.78688,-0.796539 V 6.4407013 c 0,-1.287252 -1.05542,-2.331852 -2.34325,-2.331852 z"
     id="path12"
     style="fill:#228c3a" /></svg>
